<svg width="40" height="40" viewBox="0 0 40 40" fill="none" xmlns="http://www.w3.org/2000/svg">
<path d="M18.114 12.491C18.19 11.696 19.02 11.041 19.857 11.519C21.597 12.538 23.239 13.699 24.827 14.94C26.787 16.488 28.36 17.947 29.474 19.112C29.957 19.619 29.912 20.42 29.45 20.904C28.3468 22.0451 27.18 23.1228 25.955 24.132C24.017 25.719 22.01 27.257 19.825 28.49C19.084 28.908 18.281 28.43 18.138 27.689L18.121 27.576L17.894 24.002C16.078 24.04 14.32 24.664 12.914 25.825L12.649 26.047L12.521 26.151L12.274 26.343C12.234 26.373 12.194 26.403 12.154 26.431L11.924 26.591C11.8526 26.638 11.7799 26.683 11.706 26.726L11.5 26.837C10.534 27.314 10 26.892 10 25C10 20.596 13.245 16.677 17.632 16.083L17.891 16.052L18.114 12.491ZM20.023 13.965L19.831 17.437C19.8245 17.5557 19.776 17.6682 19.6941 17.7543C19.6121 17.8405 19.5022 17.8946 19.384 17.907L18.023 18.049C14.958 18.415 12.526 20.811 12.075 23.943C13.574 22.8377 15.3531 22.1753 17.21 22.031L17.607 22.008L19.311 21.972C19.4406 21.9692 19.5662 22.0169 19.6614 22.1049C19.7565 22.193 19.8138 22.3146 19.821 22.444L20.018 26.04C21.621 25.019 23.149 23.844 24.682 22.59C25.6721 21.7675 26.6253 20.9016 27.539 19.995L27.281 19.739L26.725 19.206C25.7194 18.2639 24.6737 17.3654 23.591 16.513C22.4427 15.6077 21.252 14.7574 20.023 13.965Z" fill="black"/>
<rect x="1" y="1" width="38" height="38" rx="19" stroke="black" stroke-width="2"/>
</svg>
